<svg xmlns="http://www.w3.org/2000/svg" xmlns:xlink="http://www.w3.org/1999/xlink" zoomAndPan="magnify" preserveAspectRatio="xMidYMid meet" version="1.0" viewBox="159.33 159.33 56.67 56.67"><defs><clipPath id="1e7ab31887"><path d="M 159.328125 159.328125 L 216 159.328125 L 216 216 L 159.328125 216 Z M 159.328125 159.328125 " clip-rule="nonzero"/></clipPath><clipPath id="0fbb6b2c1b"><path d="M 176.578125 159.328125 L 198.421875 159.328125 C 202.996094 159.328125 207.382812 161.148438 210.617188 164.382812 C 213.851562 167.617188 215.671875 172.003906 215.671875 176.578125 L 215.671875 198.421875 C 215.671875 202.996094 213.851562 207.382812 210.617188 210.617188 C 207.382812 213.851562 202.996094 215.671875 198.421875 215.671875 L 176.578125 215.671875 C 172.003906 215.671875 167.617188 213.851562 164.382812 210.617188 C 161.148438 207.382812 159.328125 202.996094 159.328125 198.421875 L 159.328125 176.578125 C 159.328125 172.003906 161.148438 167.617188 164.382812 164.382812 C 167.617188 161.148438 172.003906 159.328125 176.578125 159.328125 " clip-rule="nonzero"/></clipPath><clipPath id="baa1c8096a"><path d="M 169.78125 175.707031 L 205 175.707031 L 205 198.957031 L 169.78125 198.957031 Z M 169.78125 175.707031 " clip-rule="nonzero"/></clipPath><clipPath id="ed21954c8a"><path d="M 166.210938 166.238281 L 208.960938 166.238281 L 208.960938 208.988281 L 166.210938 208.988281 Z M 166.210938 166.238281 " clip-rule="nonzero"/></clipPath></defs><g clip-path="url(#1e7ab31887)"><g clip-path="url(#0fbb6b2c1b)"><path fill="#ff006e" d="M 159.328125 159.328125 L 215.578125 159.328125 L 215.578125 215.578125 L 159.328125 215.578125 Z M 159.328125 159.328125 " fill-opacity="1" fill-rule="nonzero"/></g></g><g clip-path="url(#baa1c8096a)"><path fill="#ffc7c7" d="M 204.902344 177.585938 C 204.8125 176.984375 204.484375 176.546875 203.957031 176.253906 C 203.289062 175.878906 202.578125 175.785156 201.816406 175.753906 C 200.515625 175.703125 199.265625 175.941406 198.082031 176.441406 C 195.671875 177.457031 193.421875 178.746094 191.441406 180.460938 C 190.222656 181.515625 189.257812 182.765625 188.605469 184.242188 C 188.328125 183.328125 188.117188 182.820312 188.023438 182.617188 C 188.085938 182.554688 188.140625 182.488281 188.179688 182.414062 C 188.179688 182.414062 188.179688 182.410156 188.179688 182.410156 C 188.195312 182.386719 188.207031 182.363281 188.21875 182.339844 C 188.21875 182.335938 188.21875 182.335938 188.21875 182.332031 C 188.230469 182.308594 188.238281 182.285156 188.246094 182.261719 C 188.25 182.257812 188.25 182.253906 188.25 182.25 C 188.257812 182.230469 188.265625 182.207031 188.269531 182.183594 C 188.269531 182.175781 188.273438 182.171875 188.273438 182.164062 C 188.277344 182.144531 188.28125 182.121094 188.285156 182.097656 C 188.285156 182.089844 188.289062 182.082031 188.289062 182.078125 C 188.289062 182.046875 188.292969 182.015625 188.292969 181.984375 C 188.292969 181.957031 188.289062 181.925781 188.289062 181.894531 C 188.289062 181.890625 188.285156 181.886719 188.285156 181.882812 C 188.28125 181.855469 188.277344 181.832031 188.273438 181.804688 C 188.273438 181.804688 188.273438 181.800781 188.273438 181.800781 C 188.234375 181.628906 188.144531 181.472656 188.019531 181.351562 C 188.433594 180.328125 189.339844 178.582031 190.972656 177.601562 C 191.070312 177.542969 191.097656 177.417969 191.039062 177.324219 C 190.984375 177.226562 190.855469 177.195312 190.761719 177.253906 C 189.039062 178.285156 188.097656 180.0625 187.660156 181.144531 C 187.625 181.132812 187.585938 181.125 187.546875 181.121094 C 187.539062 181.117188 187.53125 181.117188 187.523438 181.117188 C 187.507812 181.113281 187.496094 181.113281 187.484375 181.109375 C 187.457031 181.109375 187.433594 181.105469 187.40625 181.105469 C 187.316406 181.105469 187.234375 181.121094 187.152344 181.144531 C 186.714844 180.066406 185.773438 178.285156 184.050781 177.253906 C 183.953125 177.195312 183.828125 177.226562 183.769531 177.324219 C 183.710938 177.417969 183.742188 177.542969 183.839844 177.601562 C 185.472656 178.582031 186.378906 180.332031 186.792969 181.355469 C 186.625 181.515625 186.519531 181.738281 186.519531 181.984375 C 186.519531 182.234375 186.621094 182.457031 186.789062 182.617188 C 186.695312 182.820312 186.484375 183.328125 186.207031 184.242188 C 185.550781 182.765625 184.589844 181.515625 183.367188 180.460938 C 181.386719 178.746094 179.136719 177.457031 176.730469 176.441406 C 175.546875 175.941406 174.296875 175.703125 172.996094 175.753906 C 172.234375 175.785156 171.519531 175.878906 170.855469 176.253906 C 170.328125 176.546875 170 176.984375 169.910156 177.585938 C 169.816406 178.222656 169.933594 178.835938 170.179688 179.414062 C 170.554688 180.296875 170.972656 181.164062 171.390625 182.03125 C 171.640625 182.542969 171.824219 183.070312 171.902344 183.632812 C 172.003906 184.351562 172.074219 185.070312 172.207031 185.78125 C 172.539062 187.519531 174.207031 188.996094 176.242188 188.707031 C 176.285156 188.699219 176.332031 188.707031 176.335938 188.707031 C 175.824219 189.132812 175.292969 189.558594 174.78125 190.003906 C 174.429688 190.3125 174.246094 190.71875 174.171875 191.175781 C 174.070312 191.785156 174.15625 192.375 174.332031 192.953125 C 174.875 194.71875 175.890625 196.195312 177.191406 197.488281 C 177.703125 198 178.269531 198.441406 178.929688 198.75 C 179.324219 198.9375 179.941406 198.953125 180.375 198.886719 C 181.308594 198.742188 181.910156 198.378906 182.652344 197.820312 C 183.378906 197.277344 183.941406 196.585938 184.484375 195.875 C 185.277344 194.835938 186.03125 193.773438 186.558594 192.574219 C 186.558594 192.574219 186.621094 196.277344 187.40625 196.277344 C 188.191406 196.277344 188.25 192.574219 188.25 192.574219 C 188.78125 193.773438 189.535156 194.835938 190.328125 195.875 C 190.871094 196.585938 191.433594 197.277344 192.15625 197.820312 C 192.902344 198.378906 193.503906 198.742188 194.433594 198.886719 C 194.867188 198.953125 195.484375 198.9375 195.882812 198.75 C 196.542969 198.441406 197.109375 198 197.621094 197.488281 C 198.921875 196.195312 199.9375 194.71875 200.476562 192.953125 C 200.65625 192.375 200.742188 191.785156 200.640625 191.175781 C 200.566406 190.71875 200.382812 190.3125 200.03125 190.003906 C 199.515625 189.558594 198.988281 189.132812 198.476562 188.707031 C 198.480469 188.707031 198.523438 188.699219 198.570312 188.707031 C 200.601562 188.996094 202.269531 187.519531 202.601562 185.78125 C 202.738281 185.070312 202.808594 184.351562 202.90625 183.632812 C 202.984375 183.070312 203.167969 182.542969 203.417969 182.03125 C 203.839844 181.164062 204.257812 180.296875 204.632812 179.414062 C 204.875 178.835938 204.996094 178.222656 204.902344 177.585938 Z M 204.902344 177.585938 " fill-opacity="1" fill-rule="nonzero"/></g><path fill="#ff8888" d="M 191.039062 177.324219 C 190.984375 177.226562 190.855469 177.195312 190.761719 177.253906 C 189.039062 178.285156 188.097656 180.0625 187.660156 181.144531 C 187.578125 181.121094 187.496094 181.105469 187.40625 181.105469 C 187.316406 181.105469 187.234375 181.121094 187.152344 181.144531 C 186.714844 180.0625 185.773438 178.285156 184.050781 177.253906 C 183.953125 177.195312 183.828125 177.226562 183.769531 177.324219 C 183.710938 177.417969 183.742188 177.542969 183.839844 177.601562 C 185.472656 178.582031 186.378906 180.332031 186.792969 181.355469 C 186.625 181.515625 186.519531 181.738281 186.519531 181.984375 C 186.519531 182.234375 186.621094 182.457031 186.789062 182.617188 C 186.695312 182.820312 186.484375 183.328125 186.207031 184.242188 L 186.558594 192.574219 C 186.558594 192.574219 186.621094 196.277344 187.40625 196.277344 C 188.191406 196.277344 188.25 192.574219 188.25 192.574219 L 188.605469 184.242188 C 188.328125 183.328125 188.117188 182.820312 188.023438 182.617188 C 188.1875 182.457031 188.292969 182.234375 188.292969 181.984375 C 188.292969 181.738281 188.1875 181.515625 188.019531 181.355469 C 188.433594 180.332031 189.335938 178.582031 190.972656 177.601562 C 191.070312 177.542969 191.097656 177.417969 191.039062 177.324219 Z M 191.039062 177.324219 " fill-opacity="1" fill-rule="nonzero"/><g clip-path="url(#ed21954c8a)"><path fill="#f8f8f8" d="M 204.023438 208.988281 L 171.148438 208.988281 C 168.441406 208.988281 166.214844 206.753906 166.214844 204.046875 L 166.214844 171.175781 C 166.214844 168.441406 168.441406 166.238281 171.148438 166.238281 L 204.023438 166.238281 C 206.726562 166.238281 208.957031 168.441406 208.957031 171.175781 L 208.957031 204.074219 C 208.90625 206.804688 206.726562 208.988281 204.023438 208.988281 Z M 171.148438 167.765625 C 169.269531 167.765625 167.742188 169.296875 167.742188 171.175781 L 167.742188 204.074219 C 167.742188 205.953125 169.269531 207.484375 171.148438 207.484375 L 204.023438 207.484375 C 205.902344 207.484375 207.429688 205.953125 207.429688 204.074219 L 207.429688 171.175781 C 207.429688 169.296875 205.902344 167.765625 204.023438 167.765625 Z M 171.148438 167.765625 " fill-opacity="1" fill-rule="evenodd"/></g></svg>